<?xml version="1.0" standalone="no"?>
<!DOCTYPE svg PUBLIC "-//W3C//DTD SVG 20010904//EN"
 "http://www.w3.org/TR/2001/REC-SVG-20010904/DTD/svg10.dtd">
<svg version="1.0" xmlns="http://www.w3.org/2000/svg"
 width="110.000000pt" height="105.000000pt" viewBox="0 0 110.000000 105.000000"
 preserveAspectRatio="xMidYMid meet">

<g transform="translate(0.000000,105.000000) scale(0.100000,-0.100000)"
fill="#000000" stroke="none">
<path d="M516 1004 c-34 -34 -9 -94 39 -94 24 0 55 33 55 57 0 20 -38 53 -59
53 -11 0 -27 -7 -35 -16z"/>
<path d="M724 988 c-27 -13 -44 -48 -51 -110 -7 -55 2 -60 39 -20 33 35 48 65
48 94 0 36 -12 47 -36 36z"/>
<path d="M344 966 c-7 -28 23 -90 60 -125 l26 -24 0 45 c0 57 -17 106 -40 118
-29 15 -39 12 -46 -14z"/>
<path d="M630 908 c-21 -35 -44 -107 -37 -114 3 -3 16 -2 31 2 24 6 25 9 20
44 -4 22 -2 53 4 69 14 40 7 39 -18 -1z"/>
<path d="M458 864 c2 -35 7 -64 12 -64 5 0 15 -3 24 -6 22 -9 21 30 -3 82 -28
62 -36 59 -33 -12z"/>
<path d="M208 879 c-12 -6 -18 -22 -18 -45 0 -43 34 -64 75 -46 20 9 25 19 25
46 0 48 -40 70 -82 45z"/>
<path d="M827 872 c-22 -25 -21 -55 2 -76 26 -24 62 -17 80 15 13 24 13 29 -2
53 -21 31 -56 34 -80 8z"/>
<path d="M330 871 c0 -20 32 -96 47 -113 16 -18 17 -18 30 5 11 22 9 28 -32
71 -25 25 -45 42 -45 37z"/>
<path d="M728 834 c-40 -44 -46 -65 -24 -83 15 -13 31 7 55 66 22 54 9 61 -31
17z"/>
<path d="M431 749 c-15 -34 -10 -44 28 -57 29 -10 30 -9 41 24 14 40 15 38
-26 51 -28 10 -31 8 -43 -18z"/>
<path d="M624 767 c-31 -9 -31 -10 -22 -46 6 -20 11 -37 13 -39 3 -3 63 25 73
33 2 2 -5 16 -15 32 -16 26 -21 28 -49 20z"/>
<path d="M535 732 c-3 -15 -8 -35 -11 -44 -4 -15 1 -18 29 -18 l34 0 -10 40
c-13 48 -33 59 -42 22z"/>
<path d="M244 697 c36 -38 44 -42 64 -34 31 14 24 28 -28 55 -70 35 -82 28
-36 -21z"/>
<path d="M835 726 c-16 -8 -39 -21 -50 -29 -19 -15 -19 -15 6 -27 25 -11 30
-9 69 29 45 44 36 54 -25 27z"/>
<path d="M91 721 c-12 -8 -12 -13 2 -34 16 -25 79 -47 132 -47 36 0 28 17 -24
58 -42 32 -83 40 -110 23z"/>
<path d="M920 709 c-35 -21 -60 -46 -60 -61 0 -12 41 -9 97 7 37 11 52 21 56
37 3 12 4 25 1 30 -9 15 -59 8 -94 -13z"/>
<path d="M387 684 c-7 -7 25 -73 36 -74 4 0 17 10 28 21 l22 22 -34 18 c-38
20 -43 22 -52 13z"/>
<path d="M663 670 l-32 -17 26 -26 26 -25 18 36 c30 58 22 65 -38 32z"/>
<path d="M327 644 c-23 -12 -26 -19 -21 -42 4 -15 8 -29 10 -31 7 -7 74 10 74
20 0 10 -28 69 -33 69 -1 -1 -14 -8 -30 -16z"/>
<path d="M726 623 c-9 -20 -16 -37 -14 -38 2 -2 19 -7 39 -13 35 -9 37 -9 46
23 10 31 9 33 -22 48 l-32 15 -17 -35z"/>
<path d="M156 609 c6 -11 67 -36 101 -44 32 -6 32 -6 23 22 -10 26 -13 28 -69
28 -33 0 -57 -3 -55 -6z"/>
<path d="M825 591 c-3 -13 -5 -25 -3 -27 7 -7 79 15 107 32 l29 19 -63 0 c-59
0 -65 -2 -70 -24z"/>
<path d="M82 564 c-24 -17 -30 -62 -10 -82 16 -16 63 -15 75 1 23 29 23 48 -2
73 -28 28 -33 29 -63 8z"/>
<path d="M962 564 c-40 -28 -22 -94 27 -94 29 0 61 26 61 51 0 42 -53 68 -88
43z"/>
<path d="M380 550 c-8 -5 -25 -10 -37 -10 -36 0 -27 -26 14 -38 20 -6 39 -10
41 -8 2 2 2 18 0 35 -2 24 -6 29 -18 21z"/>
<path d="M700 523 c0 -36 -3 -35 58 -18 32 9 24 25 -21 40 l-37 13 0 -35z"/>
<path d="M212 465 c-73 -32 -74 -40 -6 -40 61 0 64 1 73 28 9 24 8 27 -12 27
-12 -1 -37 -7 -55 -15z"/>
<path d="M310 454 c-14 -35 -13 -37 19 -55 28 -16 29 -16 45 11 22 39 20 46
-15 59 -41 14 -38 15 -49 -15z"/>
<path d="M740 469 c-34 -14 -33 -13 -15 -49 12 -23 21 -30 33 -25 9 4 24 9 33
12 14 4 15 10 6 39 -11 36 -17 39 -57 23z"/>
<path d="M820 468 c0 -27 17 -36 78 -40 62 -4 63 -4 41 13 -22 16 -84 39 -108
39 -6 0 -11 -6 -11 -12z"/>
<path d="M400 401 c-24 -49 -13 -58 35 -30 l36 22 -22 23 c-12 13 -24 24 -26
24 -1 0 -12 -18 -23 -39z"/>
<path d="M660 415 c-13 -14 -22 -26 -19 -27 74 -45 91 -41 61 16 l-19 35 -23
-24z"/>
<path d="M133 385 c-39 -17 -62 -53 -42 -66 8 -5 23 -9 33 -9 27 0 103 46 116
70 10 18 7 20 -32 20 -24 -1 -57 -7 -75 -15z"/>
<path d="M880 365 c18 -19 48 -40 67 -46 36 -12 73 -4 73 15 0 36 -61 66 -133
66 l-41 0 34 -35z"/>
<path d="M265 364 c-9 -14 -30 -34 -48 -45 l-32 -21 35 6 c40 7 102 38 107 52
2 6 -7 16 -21 22 -21 9 -27 8 -41 -14z"/>
<path d="M791 376 l-23 -13 27 -21 c24 -19 104 -48 109 -40 1 2 -18 22 -44 45
-41 38 -47 40 -69 29z"/>
<path d="M524 353 c2 -10 7 -28 11 -40 8 -29 35 -30 35 -2 0 11 5 29 10 40 10
17 7 19 -25 19 -30 0 -35 -3 -31 -17z"/>
<path d="M448 344 c-32 -17 -32 -15 -16 -49 10 -22 16 -25 42 -19 41 8 40 7
26 48 -13 40 -14 41 -52 20z"/>
<path d="M606 338 c-11 -41 -6 -53 23 -64 27 -11 30 -9 44 21 15 31 15 32 -13
48 -37 22 -46 21 -54 -5z"/>
<path d="M363 263 c-11 -21 -24 -53 -28 -71 l-7 -33 47 50 c40 43 45 52 35 70
-15 29 -23 26 -47 -16z"/>
<path d="M694 278 c-9 -20 -4 -29 33 -65 50 -49 57 -35 21 37 -27 52 -41 59
-54 28z"/>
<path d="M202 248 c-21 -21 -14 -66 13 -84 23 -15 27 -15 50 0 17 11 25 26 25
44 0 35 -16 52 -50 52 -14 0 -31 -5 -38 -12z"/>
<path d="M590 251 c0 -19 29 -101 42 -120 13 -19 14 -15 14 44 -1 61 -2 65
-28 74 -16 6 -28 6 -28 2z"/>
<path d="M826 244 c-41 -40 7 -109 59 -86 14 6 27 23 31 37 13 50 -53 86 -90
49z"/>
<path d="M470 242 c-11 -5 -15 -24 -15 -70 0 -60 0 -61 16 -40 16 21 39 84 39
107 0 12 -17 13 -40 3z"/>
<path d="M393 188 c-38 -39 -56 -83 -48 -115 13 -52 70 -9 80 60 4 24 5 54 3
66 -3 21 -4 21 -35 -11z"/>
<path d="M674 165 c7 -66 18 -90 46 -105 31 -16 43 -2 37 41 -6 42 -37 93 -69
110 -20 11 -21 10 -14 -46z"/>
<path d="M512 118 c-21 -21 -14 -66 12 -83 50 -33 104 20 72 70 -18 27 -63 34
-84 13z"/>
</g>
</svg>
